<svg width="1000" height="1000" viewBox="0 0 1000 1000" xmlns="http://www.w3.org/2000/svg"><defs/><path fill="#ffffff" transform="matrix(0.31922488612499145 0 0 0.31922488612499145 103.95435988871378 46.500293548224334)" d="M 205.2420128024 1547.72767084584 C 218.3420128024 1503.12767084584 232.1420128024 1478.22767084584 237.5420128024 1469.62767084584 L 242.1420128024 1462.22767084584 L 234.3420128024 1466.22767084584 C 215.1420128024 1476.22767084584 180.6420128024 1504.82767084584 178.3420128024 1506.72767084584 C 178.3420128024 1506.72767084584 178.2420128024 1506.72767084584 178.2420128024 1506.72767084584 C 178.2420128024 1506.72767084584 178.2420128024 1506.72767084584 178.2420128024 1506.72767084584 C 178.1420128024 1506.72767084584 178.1420128024 1506.72767084584 178.0420128024 1506.72767084584 C 177.9420128024 1506.72767084584 177.9420128024 1506.62767084584 177.9420128024 1506.52767084584 C 179.3420128024 1486.72767084584 186.1420128024 1472.42767084584 197.9420128024 1463.92767084584 C 198.8420128024 1463.22767084584 206.7420128024 1457.82767084584 222.3420128024 1455.72767084584 L 235.2420128024 1454.12767084584 C 235.2420128024 1454.12767084584 219.2420128024 1449.32767084584 200.6420128024 1449.32767084584 C 181.7420128024 1449.32767084584 155.5420128024 1450.52767084584 144.2420128024 1451.12767084584 L 144.2420128024 1609.42767084584 C 144.2420128024 1618.52767084584 151.6420128024 1625.82767084584 160.6420128024 1625.82767084584 L 188.2420128024 1625.82767084584 C 192.4420128024 1598.62767084584 198.0420128024 1572.52767084584 205.2420128024 1547.72767084584 Z"/><path fill="#ffffff" transform="matrix(0.31922488612499145 0 0 0.31922488612499145 103.95435988871378 46.500293548224334)" d="M 322.2420128024 1368.32767084584 C 299.4420128024 1368.32767084584 259.1420128024 1368.32767084584 241.3420128024 1368.32767084584 C 210.4420128024 1368.32767084584 185.4420128024 1343.32767084584 185.4420128024 1312.42767084584 C 185.4420128024 1281.52767084584 210.4420128024 1256.52767084584 241.3420128024 1256.52767084584 C 272.2420128024 1256.52767084584 297.2420128024 1281.52767084584 297.2420128024 1312.42767084584 C 297.2420128024 1312.42767084584 297.0420128024 1332.02767084584 316.7420128024 1332.02767084584 C 338.5420128024 1332.02767084584 338.3420128024 1312.42767084584 338.3420128024 1312.42767084584 C 338.3420128024 1258.82767084584 294.9420128024 1215.42767084584 241.3420128024 1215.42767084584 C 187.7420128024 1215.42767084584 144.3420128024 1258.82767084584 144.3420128024 1312.42767084584 L 144.3420128024 1443.62767084584 C 152.6420128024 1435.12767084584 164.6420128024 1428.92767084584 177.5420128024 1426.72767084584 C 181.2420128024 1426.12767084584 185.0420128024 1425.82767084584 188.6420128024 1425.82767084584 C 216.3420128024 1425.82767084584 241.3420128024 1450.72767084584 241.4420128024 1450.92767084584 C 231.3420128024 1425.52767084584 189.2420128024 1389.82767084584 188.9420128024 1389.62767084584 C 188.8420128024 1389.62767084584 188.8420128024 1389.52767084584 188.8420128024 1389.32767084584 C 188.8420128024 1389.22767084584 188.9420128024 1389.12767084584 189.0420128024 1389.12767084584 L 189.0420128024 1389.12767084584 C 192.3420128024 1388.82767084584 195.5420128024 1388.62767084584 198.5420128024 1388.62767084584 C 215.3420128024 1388.62767084584 228.6420128024 1393.72767084584 237.0420128024 1403.32767084584 C 243.2420128024 1410.42767084584 246.6420128024 1420.02767084584 247.1420128024 1431.62767084584 L 248.6420128024 1449.82767084584 L 258.6420128024 1436.02767084584 C 266.4420128024 1427.92767084584 274.9420128024 1423.12767084584 283.8420128024 1421.72767084584 C 284.2420128024 1421.62767084584 284.6420128024 1421.62767084584 285.0420128024 1421.52767084584 C 286.6420128024 1421.32767084584 288.1420128024 1421.22767084584 289.7420128024 1421.22767084584 C 303.2420128024 1421.22767084584 317.3420128024 1428.72767084584 330.3420128024 1442.92767084584 C 330.4420128024 1443.02767084584 330.4420128024 1443.12767084584 330.3420128024 1443.22767084584 C 330.3420128024 1443.22767084584 330.2420128024 1443.32767084584 330.1420128024 1443.32767084584 L 329.9420128024 1443.32767084584 C 329.3420128024 1443.22767084584 323.1420128024 1442.12767084584 313.1420128024 1442.12767084584 C 310.3420128024 1442.12767084584 307.5420128024 1442.22767084584 304.7420128024 1442.42767084584 C 299.6420128024 1442.72767084584 294.3420128024 1443.32767084584 288.9420128024 1444.22767084584 C 280.6420128024 1445.52767084584 263.1420128024 1450.72767084584 256.2420128024 1453.62767084584 C 256.2420128024 1453.62767084584 287.9420128024 1454.82767084584 309.8420128024 1471.02767084584 C 322.4420128024 1480.32767084584 325.5420128024 1496.72767084584 322.0420128024 1517.62767084584 C 322.0420128024 1517.72767084584 321.9420128024 1517.82767084584 321.8420128024 1517.82767084584 C 321.8420128024 1517.82767084584 321.8420128024 1517.82767084584 321.8420128024 1517.82767084584 C 321.7420128024 1517.82767084584 321.6420128024 1517.82767084584 321.6420128024 1517.72767084584 C 321.1420128024 1517.22767084584 320.2420128024 1516.12767084584 318.8420128024 1514.42767084584 C 302.8420128024 1495.82767084584 278.5420128024 1472.22767084584 264.9420128024 1465.12767084584 L 256.0420128024 1460.42767084584 C 276.3420128024 1477.62767084584 284.3420128024 1506.62767084584 260.8420128024 1538.02767084584 C 260.8420128024 1538.02767084584 260.8420128024 1538.12767084584 260.7420128024 1538.12767084584 C 260.6420128024 1538.12767084584 260.5420128024 1538.02767084584 260.4420128024 1538.02767084584 C 260.2420128024 1533.52767084584 257.4420128024 1486.32767084584 250.6420128024 1471.52767084584 L 248.5420128024 1466.92767084584 L 246.3420128024 1471.42767084584 C 232.5420128024 1499.22767084584 216.3420128024 1560.02767084584 213.1420128024 1625.72767084584 L 322.0420128024 1625.72767084584 C 331.1420128024 1625.72767084584 338.5420128024 1618.32767084584 338.5420128024 1609.32767084584 L 338.7420128024 1384.82767084584 C 338.7420128024 1375.72767084584 331.3420128024 1368.32767084584 322.2420128024 1368.32767084584 Z"/><path id="text" fill="#ffffff" transform="matrix(1.686880578719825 0 0 1.6868805787198249 221.61773293396868 129.71436898123966)" d="M 53.0234124812 222.58109607352 C 51.2314124812 225.81309607352 48.4794124812 228.42109607352 44.7674124812 230.40509607352 C 41.0554124812 232.38909607352 36.4474124812 233.38109607352 30.9434124812 233.38109607352 L 20.7674124812 233.38109607352 L 20.7674124812 257.57309607352 L 4.3514124812 257.57309607352 L 4.3514124812 190.18109607352 L 30.9434124812 190.18109607352 C 36.3194124812 190.18109607352 40.8634124812 191.10909607352 44.5754124812 192.96509607352 C 48.2874124812 194.82109607352 51.0714124812 197.38109607352 52.9274124812 200.64509607352 C 54.7834124812 203.90909607352 55.7114124812 207.65309607352 55.7114124812 211.87709607352 C 55.7114124812 215.78109607352 54.8154124812 219.34909607352 53.0234124812 222.58109607352 Z M 36.7034124812 218.11709607352 C 38.2394124812 216.64509607352 39.0074124812 214.56509607352 39.0074124812 211.87709607352 C 39.0074124812 209.18909607352 38.2394124812 207.10909607352 36.7034124812 205.63709607352 C 35.1674124812 204.16509607352 32.8314124812 203.42909607352 29.6954124812 203.42909607352 L 20.7674124812 203.42909607352 L 20.7674124812 220.32509607352 L 29.6954124812 220.32509607352 C 32.8314124812 220.32509607352 35.1674124812 219.58909607352 36.7034124812 218.11709607352 Z M 87.8714124812 205.97309607352 C 90.7514124812 204.27709607352 93.9514124812 203.42909607352 97.4714124812 203.42909607352 L 97.4714124812 220.80509607352 L 92.9594124812 220.80509607352 C 88.8634124812 220.80509607352 85.7914124812 221.68509607352 83.7434124812 223.44509607352 C 81.6954124812 225.20509607352 80.6714124812 228.29309607352 80.6714124812 232.70909607352 L 80.6714124812 257.57309607352 L 64.2554124812 257.57309607352 L 64.2554124812 204.00509607352 L 80.6714124812 204.00509607352 L 80.6714124812 212.93309607352 C 82.5914124812 209.98909607352 84.9914124812 207.66909607352 87.8714124812 205.97309607352 Z M 106.5434124812 195.89309607352 C 104.7194124812 194.19709607352 103.8074124812 192.10109607352 103.8074124812 189.60509607352 C 103.8074124812 187.04509607352 104.7194124812 184.91709607352 106.5434124812 183.22109607352 C 108.3674124812 181.52509607352 110.7194124812 180.67709607352 113.5994124812 180.67709607352 C 116.4154124812 180.67709607352 118.7354124812 181.52509607352 120.5594124812 183.22109607352 C 122.3834124812 184.91709607352 123.2954124812 187.04509607352 123.2954124812 189.60509607352 C 123.2954124812 192.10109607352 122.3834124812 194.19709607352 120.5594124812 195.89309607352 C 118.7354124812 197.58909607352 116.4154124812 198.43709607352 113.5994124812 198.43709607352 C 110.7194124812 198.43709607352 108.3674124812 197.58909607352 106.5434124812 195.89309607352 Z M 121.7594124812 204.00509607352 L 121.7594124812 257.57309607352 L 105.3434124812 257.57309607352 L 105.3434124812 204.00509607352 L 121.7594124812 204.00509607352 Z M 142.9754124812 255.94109607352 C 139.3274124812 254.34109607352 136.4474124812 252.14909607352 134.3354124812 249.36509607352 C 132.2234124812 246.58109607352 131.0394124812 243.46109607352 130.7834124812 240.00509607352 L 147.0074124812 240.00509607352 C 147.1994124812 241.86109607352 148.0634124812 243.36509607352 149.5994124812 244.51709607352 C 151.1354124812 245.66909607352 153.0234124812 246.24509607352 155.2634124812 246.24509607352 C 157.3114124812 246.24509607352 158.8954124812 245.84509607352 160.0154124812 245.04509607352 C 161.1354124812 244.24509607352 161.6954124812 243.20509607352 161.6954124812 241.92509607352 C 161.6954124812 240.38909607352 160.8954124812 239.25309607352 159.2954124812 238.51709607352 C 157.6954124812 237.78109607352 155.1034124812 236.96509607352 151.5194124812 236.06909607352 C 147.6794124812 235.17309607352 144.4794124812 234.22909607352 141.9194124812 233.23709607352 C 139.3594124812 232.24509607352 137.1514124812 230.67709607352 135.2954124812 228.53309607352 C 133.4394124812 226.38909607352 132.5114124812 223.49309607352 132.5114124812 219.84509607352 C 132.5114124812 216.77309607352 133.3594124812 213.97309607352 135.0554124812 211.44509607352 C 136.7514124812 208.91709607352 139.2474124812 206.91709607352 142.5434124812 205.44509607352 C 145.8394124812 203.97309607352 149.7594124812 203.23709607352 154.3034124812 203.23709607352 C 161.0234124812 203.23709607352 166.3194124812 204.90109607352 170.1914124812 208.22909607352 C 174.0634124812 211.55709607352 176.2874124812 215.97309607352 176.8634124812 221.47709607352 L 161.6954124812 221.47709607352 C 161.4394124812 219.62109607352 160.6234124812 218.14909607352 159.2474124812 217.06109607352 C 157.8714124812 215.97309607352 156.0634124812 215.42909607352 153.8234124812 215.42909607352 C 151.9034124812 215.42909607352 150.4314124812 215.79709607352 149.4074124812 216.53309607352 C 148.3834124812 217.26909607352 147.8714124812 218.27709607352 147.8714124812 219.55709607352 C 147.8714124812 221.09309607352 148.6874124812 222.24509607352 150.3194124812 223.01309607352 C 151.9514124812 223.78109607352 154.4954124812 224.54909607352 157.9514124812 225.31709607352 C 161.9194124812 226.34109607352 165.1514124812 227.34909607352 167.6474124812 228.34109607352 C 170.1434124812 229.33309607352 172.3354124812 230.93309607352 174.2234124812 233.14109607352 C 176.1114124812 235.34909607352 177.0874124812 238.30909607352 177.1514124812 242.02109607352 C 177.1514124812 245.15709607352 176.2714124812 247.95709607352 174.5114124812 250.42109607352 C 172.7514124812 252.88509607352 170.2234124812 254.82109607352 166.9274124812 256.22909607352 C 163.6314124812 257.63709607352 159.8074124812 258.34109607352 155.4554124812 258.34109607352 C 150.7834124812 258.34109607352 146.6234124812 257.54109607352 142.9754124812 255.94109607352 Z M 217.0874124812 243.65309607352 L 217.0874124812 257.57309607352 L 208.7354124812 257.57309607352 C 202.7834124812 257.57309607352 198.1434124812 256.11709607352 194.8154124812 253.20509607352 C 191.4874124812 250.29309607352 189.8234124812 245.54109607352 189.8234124812 238.94909607352 L 189.8234124812 217.63709607352 L 183.2954124812 217.63709607352 L 183.2954124812 204.00509607352 L 189.8234124812 204.00509607352 L 189.8234124812 190.94909607352 L 206.2394124812 190.94909607352 L 206.2394124812 204.00509607352 L 216.9914124812 204.00509607352 L 216.9914124812 217.63709607352 L 206.2394124812 217.63709607352 L 206.2394124812 239.14109607352 C 206.2394124812 240.74109607352 206.6234124812 241.89309607352 207.3914124812 242.59709607352 C 208.1594124812 243.30109607352 209.4394124812 243.65309607352 211.2314124812 243.65309607352 L 217.0874124812 243.65309607352 Z M 227.4074124812 195.89309607352 C 225.5834124812 194.19709607352 224.6714124812 192.10109607352 224.6714124812 189.60509607352 C 224.6714124812 187.04509607352 225.5834124812 184.91709607352 227.4074124812 183.22109607352 C 229.2314124812 181.52509607352 231.5834124812 180.67709607352 234.4634124812 180.67709607352 C 237.2794124812 180.67709607352 239.5994124812 181.52509607352 241.4234124812 183.22109607352 C 243.2474124812 184.91709607352 244.1594124812 187.04509607352 244.1594124812 189.60509607352 C 244.1594124812 192.10109607352 243.2474124812 194.19709607352 241.4234124812 195.89309607352 C 239.5994124812 197.58909607352 237.2794124812 198.43709607352 234.4634124812 198.43709607352 C 231.5834124812 198.43709607352 229.2314124812 197.58909607352 227.4074124812 195.89309607352 Z M 242.6234124812 204.00509607352 L 242.6234124812 257.57309607352 L 226.2074124812 257.57309607352 L 226.2074124812 204.00509607352 L 242.6234124812 204.00509607352 Z M 302.1914124812 209.52509607352 C 305.9354124812 213.58909607352 307.8074124812 219.17309607352 307.8074124812 226.27709607352 L 307.8074124812 257.57309607352 L 291.4874124812 257.57309607352 L 291.4874124812 228.48509607352 C 291.4874124812 224.90109607352 290.5594124812 222.11709607352 288.7034124812 220.13309607352 C 286.8474124812 218.14909607352 284.3514124812 217.15709607352 281.2154124812 217.15709607352 C 278.0794124812 217.15709607352 275.5834124812 218.14909607352 273.7274124812 220.13309607352 C 271.8714124812 222.11709607352 270.9434124812 224.90109607352 270.9434124812 228.48509607352 L 270.9434124812 257.57309607352 L 254.5274124812 257.57309607352 L 254.5274124812 204.00509607352 L 270.9434124812 204.00509607352 L 270.9434124812 211.10909607352 C 272.6074124812 208.74109607352 274.8474124812 206.86909607352 277.6634124812 205.49309607352 C 280.4794124812 204.11709607352 283.6474124812 203.42909607352 287.1674124812 203.42909607352 C 293.4394124812 203.42909607352 298.4474124812 205.46109607352 302.1914124812 209.52509607352 Z M 319.0874124812 216.19709607352 C 321.1674124812 212.03709607352 323.9994124812 208.83709607352 327.5834124812 206.59709607352 C 331.1674124812 204.35709607352 335.1674124812 203.23709607352 339.5834124812 203.23709607352 C 343.3594124812 203.23709607352 346.6714124812 204.00509607352 349.5194124812 205.54109607352 C 352.3674124812 207.07709607352 354.5594124812 209.09309607352 356.0954124812 211.58909607352 L 356.0954124812 204.00509607352 L 372.5114124812 204.00509607352 L 372.5114124812 257.57309607352 L 356.0954124812 257.57309607352 L 356.0954124812 249.98909607352 C 354.4954124812 252.48509607352 352.2714124812 254.50109607352 349.4234124812 256.03709607352 C 346.5754124812 257.57309607352 343.2634124812 258.34109607352 339.4874124812 258.34109607352 C 335.1354124812 258.34109607352 331.1674124812 257.20509607352 327.5834124812 254.93309607352 C 323.9994124812 252.66109607352 321.1674124812 249.42909607352 319.0874124812 245.23709607352 C 317.0074124812 241.04509607352 315.9674124812 236.19709607352 315.9674124812 230.69309607352 C 315.9674124812 225.18909607352 317.0074124812 220.35709607352 319.0874124812 216.19709607352 Z M 352.6874124812 221.09309607352 C 350.4154124812 218.72509607352 347.6474124812 217.54109607352 344.3834124812 217.54109607352 C 341.1194124812 217.54109607352 338.3514124812 218.70909607352 336.0794124812 221.04509607352 C 333.8074124812 223.38109607352 332.6714124812 226.59709607352 332.6714124812 230.69309607352 C 332.6714124812 234.78909607352 333.8074124812 238.03709607352 336.0794124812 240.43709607352 C 338.3514124812 242.83709607352 341.1194124812 244.03709607352 344.3834124812 244.03709607352 C 347.6474124812 244.03709607352 350.4154124812 242.85309607352 352.6874124812 240.48509607352 C 354.9594124812 238.11709607352 356.0954124812 234.88509607352 356.0954124812 230.78909607352 C 356.0954124812 226.69309607352 354.9594124812 223.46109607352 352.6874124812 221.09309607352 Z"/></svg>