<svg width="1000" height="1000" viewBox="0 0 1000 1000" xmlns="http://www.w3.org/2000/svg"><defs/><path transform="matrix(0.3777527311047043 0 0 0.3777527311047043 95.0171579603116 -5.886974684180348)" d="M 206.55246729493 1466.30136911984 C 219.65246729493 1421.70136911984 233.45246729493 1396.80136911984 238.85246729493 1388.20136911984 L 243.45246729493 1380.80136911984 L 235.65246729493 1384.80136911984 C 216.45246729493 1394.80136911984 181.95246729493 1423.40136911984 179.65246729493 1425.30136911984 C 179.65246729493 1425.30136911984 179.55246729493 1425.30136911984 179.55246729493 1425.30136911984 C 179.55246729493 1425.30136911984 179.55246729493 1425.30136911984 179.55246729493 1425.30136911984 C 179.45246729493 1425.30136911984 179.45246729493 1425.30136911984 179.35246729493 1425.30136911984 C 179.25246729493 1425.30136911984 179.25246729493 1425.20136911984 179.25246729493 1425.10136911984 C 180.65246729493 1405.30136911984 187.45246729493 1391.00136911984 199.25246729493 1382.50136911984 C 200.15246729493 1381.80136911984 208.05246729493 1376.40136911984 223.65246729493 1374.30136911984 L 236.55246729493 1372.70136911984 C 236.55246729493 1372.70136911984 220.55246729493 1367.90136911984 201.95246729493 1367.90136911984 C 183.05246729493 1367.90136911984 156.85246729493 1369.10136911984 145.55246729493 1369.70136911984 L 145.55246729493 1528.00136911984 C 145.55246729493 1537.10136911984 152.95246729493 1544.40136911984 161.95246729493 1544.40136911984 L 189.55246729493 1544.40136911984 C 193.75246729493 1517.20136911984 199.35246729493 1491.10136911984 206.55246729493 1466.30136911984 Z"/><path transform="matrix(0.3777527311047043 0 0 0.3777527311047043 95.0171579603116 -5.886974684180348)" d="M 323.55246729493 1286.90136911984 C 300.75246729493 1286.90136911984 260.45246729493 1286.90136911984 242.65246729493 1286.90136911984 C 211.75246729493 1286.90136911984 186.75246729493 1261.90136911984 186.75246729493 1231.00136911984 C 186.75246729493 1200.10136911984 211.75246729493 1175.10136911984 242.65246729493 1175.10136911984 C 273.55246729493 1175.10136911984 298.55246729493 1200.10136911984 298.55246729493 1231.00136911984 C 298.55246729493 1231.00136911984 298.35246729493 1250.60136911984 318.05246729493 1250.60136911984 C 339.85246729493 1250.60136911984 339.65246729493 1231.00136911984 339.65246729493 1231.00136911984 C 339.65246729493 1177.40136911984 296.25246729493 1134.00136911984 242.65246729493 1134.00136911984 C 189.05246729493 1134.00136911984 145.65246729493 1177.40136911984 145.65246729493 1231.00136911984 L 145.65246729493 1362.20136911984 C 153.95246729493 1353.70136911984 165.95246729493 1347.50136911984 178.85246729493 1345.30136911984 C 182.55246729493 1344.70136911984 186.35246729493 1344.40136911984 189.95246729493 1344.40136911984 C 217.65246729493 1344.40136911984 242.65246729493 1369.30136911984 242.75246729493 1369.50136911984 C 232.65246729493 1344.10136911984 190.55246729493 1308.40136911984 190.25246729493 1308.20136911984 C 190.15246729493 1308.20136911984 190.15246729493 1308.10136911984 190.15246729493 1307.90136911984 C 190.15246729493 1307.80136911984 190.25246729493 1307.70136911984 190.35246729493 1307.70136911984 L 190.35246729493 1307.70136911984 C 193.65246729493 1307.40136911984 196.85246729493 1307.20136911984 199.85246729493 1307.20136911984 C 216.65246729493 1307.20136911984 229.95246729493 1312.30136911984 238.35246729493 1321.90136911984 C 244.55246729493 1329.00136911984 247.95246729493 1338.60136911984 248.45246729493 1350.20136911984 L 249.95246729493 1368.40136911984 L 259.95246729493 1354.60136911984 C 267.75246729493 1346.50136911984 276.25246729493 1341.70136911984 285.15246729493 1340.30136911984 C 285.55246729493 1340.20136911984 285.95246729493 1340.20136911984 286.35246729493 1340.10136911984 C 287.95246729493 1339.90136911984 289.45246729493 1339.80136911984 291.05246729493 1339.80136911984 C 304.55246729493 1339.80136911984 318.65246729493 1347.30136911984 331.65246729493 1361.50136911984 C 331.75246729493 1361.60136911984 331.75246729493 1361.70136911984 331.65246729493 1361.80136911984 C 331.65246729493 1361.80136911984 331.55246729493 1361.90136911984 331.45246729493 1361.90136911984 L 331.25246729493 1361.90136911984 C 330.65246729493 1361.80136911984 324.45246729493 1360.70136911984 314.45246729493 1360.70136911984 C 311.65246729493 1360.70136911984 308.85246729493 1360.80136911984 306.05246729493 1361.00136911984 C 300.95246729493 1361.30136911984 295.65246729493 1361.90136911984 290.25246729493 1362.80136911984 C 281.95246729493 1364.10136911984 264.45246729493 1369.30136911984 257.55246729493 1372.20136911984 C 257.55246729493 1372.20136911984 289.25246729493 1373.40136911984 311.15246729493 1389.60136911984 C 323.75246729493 1398.90136911984 326.85246729493 1415.30136911984 323.35246729493 1436.20136911984 C 323.35246729493 1436.30136911984 323.25246729493 1436.40136911984 323.15246729493 1436.40136911984 C 323.15246729493 1436.40136911984 323.15246729493 1436.40136911984 323.15246729493 1436.40136911984 C 323.05246729493 1436.40136911984 322.95246729493 1436.40136911984 322.95246729493 1436.30136911984 C 322.45246729493 1435.80136911984 321.55246729493 1434.70136911984 320.15246729493 1433.00136911984 C 304.15246729493 1414.40136911984 279.85246729493 1390.80136911984 266.25246729493 1383.70136911984 L 257.35246729493 1379.00136911984 C 277.65246729493 1396.20136911984 285.65246729493 1425.20136911984 262.15246729493 1456.60136911984 C 262.15246729493 1456.60136911984 262.15246729493 1456.70136911984 262.05246729493 1456.70136911984 C 261.95246729493 1456.70136911984 261.85246729493 1456.60136911984 261.75246729493 1456.60136911984 C 261.55246729493 1452.10136911984 258.75246729493 1404.90136911984 251.95246729493 1390.10136911984 L 249.85246729493 1385.50136911984 L 247.65246729493 1390.00136911984 C 233.85246729493 1417.80136911984 217.65246729493 1478.60136911984 214.45246729493 1544.30136911984 L 323.35246729493 1544.30136911984 C 332.45246729493 1544.30136911984 339.85246729493 1536.90136911984 339.85246729493 1527.90136911984 L 340.05246729493 1303.40136911984 C 340.05246729493 1294.30136911984 332.65246729493 1286.90136911984 323.55246729493 1286.90136911984 Z"/><path id="text" transform="matrix(2.0460115319526806 0 0 2.0460115319526806 232.566692237217 136.66740154840164)" d="M 3.3678593441 193.86333927023 C 3.1178593441 193.86333927023 2.9928593441 193.55083927023 2.9928593441 192.92583927023 L 2.9928593441 192.36333927023 C 2.9928593441 192.11333927023 3.1491093441 191.98833927023 3.4616093441 191.98833927023 C 3.7741093441 191.98833927023 4.2350468441 191.89458927023 4.8444218441 191.70708927023 C 5.4537968441 191.51958927023 5.9147343441 191.39458927023 6.2272343441 191.33208927023 C 9.4147343441 190.61333927023 11.0084843441 188.80083927023 11.0084843441 185.89458927023 L 11.0084843441 136.39458927023 C 11.0084843441 133.51958927023 10.4772343441 131.68365177023 9.4147343441 130.88677677023 C 8.3522343441 130.08990177023 6.4303593441 129.69146427023 3.6491093441 129.69146427023 L 1.5397343441 129.69146427023 C 0.8834843441 129.69146427023 0.5553593441 129.31646427023 0.5553593441 128.56646427023 C 0.5553593441 128.12896427023 0.7584843441 127.86333927023 1.1647343441 127.76958927023 L 1.4928593441 127.76958927023 L 27.7897343441 127.06646427023 L 32.5241093441 127.06646427023 C 38.1178593441 127.44146427023 42.7741093441 129.45708927023 46.4928593441 133.11333927023 C 50.2116093441 136.76958927023 52.0709843441 141.15240177023 52.0709843441 146.26177677023 C 52.0709843441 151.37115177023 50.2428593441 156.00396427023 46.5866093441 160.16021427023 C 44.9928593441 162.00396427023 43.1959843441 163.49615177023 41.1959843441 164.63677677023 C 39.1959843441 165.77740177023 37.2272343441 166.36333927023 35.2897343441 166.39458927023 L 21.2272343441 165.83208927023 L 20.8522343441 165.83208927023 C 20.3834843441 165.83208927023 20.1491093441 166.05083927023 20.1491093441 166.48833927023 L 20.1491093441 185.75396427023 C 20.1491093441 187.47271427023 20.6178593441 188.73833927023 21.5553593441 189.55083927023 C 22.4928593441 190.36333927023 24.4772343441 191.00396427023 27.5084843441 191.47271427023 C 27.9147343441 191.53521427023 28.5709843441 191.63677677023 29.4772343441 191.77740177023 C 30.3834843441 191.91802677023 30.9928593441 191.98833927023 31.3053593441 191.98833927023 C 31.6178593441 191.98833927023 31.7741093441 192.11333927023 31.7741093441 192.36333927023 L 31.7741093441 193.48833927023 C 31.7741093441 193.73833927023 31.6491093441 193.86333927023 31.3991093441 193.86333927023 L 3.3678593441 193.86333927023 Z M 22.7506718441 129.48052677023 C 22.3287968441 129.49615177023 21.7897343441 129.51177677023 21.1334843441 129.52740177023 C 20.4772343441 129.54302677023 20.1491093441 129.80083927023 20.1491093441 130.30083927023 L 20.1491093441 160.53521427023 L 20.2428593441 161.94146427023 C 20.3366093441 162.59771427023 20.6334843441 162.94146427023 21.1334843441 162.97271427023 L 25.9147343441 163.25396427023 C 30.9459843441 163.25396427023 35.0006718441 161.56646427023 38.0787968441 158.19146427023 C 41.1569218441 154.81646427023 42.6959843441 150.57427677023 42.6959843441 145.46490177023 C 42.6959843441 140.35552677023 41.2037968441 136.39458927023 38.2194218441 133.58208927023 C 35.2350468441 130.76958927023 31.2584843441 129.36333927023 26.2897343441 129.36333927023 C 25.8522343441 129.36333927023 25.4459843441 129.37115177023 25.0709843441 129.38677677023 C 24.6959843441 129.40240177023 24.3209843441 129.41802677023 23.9459843441 129.43365177023 C 23.5709843441 129.44927677023 23.1725468441 129.46490177023 22.7506718441 129.48052677023 Z M 87.2272343441 160.25396427023 C 86.8522343441 160.19146427023 86.3053593441 159.98833927023 85.5866093441 159.64458927023 C 82.9928593441 158.45708927023 80.9616093441 157.86333927023 79.4928593441 157.86333927023 C 78.0241093441 157.86333927023 76.4850468441 158.77740177023 74.8756718441 160.60552677023 C 73.2662968441 162.43365177023 72.4616093441 164.08208927023 72.4616093441 165.55083927023 L 72.4616093441 186.73833927023 C 72.4616093441 189.08208927023 73.8209843441 190.64458927023 76.5397343441 191.42583927023 C 77.7272343441 191.73833927023 78.8366093441 191.96490177023 79.8678593441 192.10552677023 C 80.8991093441 192.24615177023 81.5631718441 192.37896427023 81.8600468441 192.50396427023 C 82.1569218441 192.62896427023 82.3053593441 192.87115177023 82.3053593441 193.23052677023 C 82.3053593441 193.58990177023 82.1491093441 193.80083927023 81.8366093441 193.86333927023 L 58.3522343441 193.86333927023 C 58.0397343441 193.80083927023 57.8834843441 193.58208927023 57.8834843441 193.20708927023 C 57.8834843441 192.64458927023 58.6178593441 192.26958927023 60.0866093441 192.08208927023 C 63.4616093441 191.58208927023 65.1491093441 189.80083927023 65.1491093441 186.73833927023 L 65.1491093441 161.94146427023 C 65.1491093441 160.62896427023 64.4303593441 159.72271427023 62.9928593441 159.22271427023 C 62.3678593441 159.00396427023 61.6959843441 158.82427677023 60.9772343441 158.68365177023 C 60.2584843441 158.54302677023 59.6881718441 158.41021427023 59.2662968441 158.28521427023 C 58.8444218441 158.16021427023 58.5787968441 158.04302677023 58.4694218441 157.93365177023 C 58.3600468441 157.82427677023 58.3053593441 157.58990177023 58.3053593441 157.23052677023 C 58.3053593441 156.87115177023 58.5397343441 156.56646427023 59.0084843441 156.31646427023 L 70.9616093441 150.69146427023 C 71.3366093441 150.50396427023 71.5709843441 150.41021427023 71.6647343441 150.41021427023 C 72.1959843441 150.41021427023 72.4616093441 150.78521427023 72.4616093441 151.53521427023 L 72.4616093441 159.12896427023 C 72.4616093441 159.50396427023 72.5553593441 159.69146427023 72.7428593441 159.69146427023 C 72.9928593441 159.69146427023 73.6334843441 158.95708927023 74.6647343441 157.48833927023 C 77.6334843441 153.33208927023 80.0866093441 151.25396427023 82.0241093441 151.25396427023 C 83.1178593441 151.25396427023 84.7975468441 151.69146427023 87.0631718441 152.56646427023 C 89.3287968441 153.44146427023 90.4616093441 154.17583927023 90.4616093441 154.76958927023 C 90.4616093441 155.48833927023 90.1022343441 156.58208927023 89.3834843441 158.05083927023 C 88.6647343441 159.51958927023 87.9459843441 160.25396427023 87.2272343441 160.25396427023 Z M 93.7428593441 193.86333927023 C 93.4303593441 193.80083927023 93.2741093441 193.58208927023 93.2741093441 193.20708927023 C 93.2741093441 192.64458927023 94.0084843441 192.26958927023 95.4772343441 192.08208927023 C 98.8522343441 191.58208927023 100.5397343441 189.80083927023 100.5397343441 186.73833927023 L 100.5397343441 161.94146427023 C 100.5397343441 160.62896427023 99.8209843441 159.72271427023 98.3834843441 159.22271427023 C 97.7584843441 159.00396427023 97.0866093441 158.82427677023 96.3678593441 158.68365177023 C 95.6491093441 158.54302677023 95.0787968441 158.41021427023 94.6569218441 158.28521427023 C 94.2350468441 158.16021427023 93.9694218441 158.04302677023 93.8600468441 157.93365177023 C 93.7506718441 157.82427677023 93.6959843441 157.58990177023 93.6959843441 157.23052677023 C 93.6959843441 156.87115177023 93.9303593441 156.56646427023 94.3991093441 156.31646427023 L 106.3522343441 150.69146427023 C 106.7272343441 150.50396427023 106.9616093441 150.41021427023 107.0553593441 150.41021427023 C 107.5866093441 150.41021427023 107.8522343441 150.78521427023 107.8522343441 151.53521427023 L 107.8522343441 186.73833927023 C 107.8522343441 189.80083927023 109.5397343441 191.58208927023 112.9147343441 192.08208927023 C 114.3834843441 192.26958927023 115.1178593441 192.59771427023 115.1178593441 193.06646427023 C 115.1178593441 193.53521427023 114.9616093441 193.80083927023 114.6491093441 193.86333927023 L 93.7428593441 193.86333927023 Z M 100.0944218441 136.01958927023 C 99.1100468441 135.20708927023 98.6178593441 134.07427677023 98.6178593441 132.62115177023 C 98.6178593441 131.16802677023 99.0866093441 130.01958927023 100.0241093441 129.17583927023 C 100.9616093441 128.33208927023 102.0787968441 127.91021427023 103.3756718441 127.91021427023 C 104.6725468441 127.91021427023 105.7662968441 128.41021427023 106.6569218441 129.41021427023 C 107.5475468441 130.41021427023 107.9928593441 131.48833927023 107.9928593441 132.64458927023 C 107.9928593441 133.80083927023 107.5709843441 134.85552677023 106.7272343441 135.80865177023 C 105.8834843441 136.76177677023 104.8131718441 137.23833927023 103.5162968441 137.23833927023 C 102.2194218441 137.23833927023 101.0787968441 136.83208927023 100.0944218441 136.01958927023 Z M 143.4772343441 161.80083927023 C 143.4772343441 162.48833927023 143.2194218441 162.83208927023 142.7037968441 162.83208927023 C 142.1881718441 162.83208927023 141.7897343441 162.45708927023 141.5084843441 161.70708927023 C 140.7584843441 159.64458927023 139.6412968441 157.81646427023 138.1569218441 156.22271427023 C 136.6725468441 154.62896427023 134.8366093441 153.83208927023 132.6491093441 153.83208927023 C 129.7741093441 153.83208927023 127.8366093441 155.26958927023 126.8366093441 158.14458927023 C 126.5241093441 159.11333927023 126.3678593441 160.11333927023 126.3678593441 161.14458927023 C 126.3678593441 162.17583927023 127.0241093441 163.32427677023 128.3366093441 164.58990177023 C 129.6491093441 165.85552677023 131.8053593441 167.36333927023 134.8053593441 169.11333927023 C 137.8053593441 170.86333927023 139.9928593441 172.34771427023 141.3678593441 173.56646427023 C 144.4928593441 176.34771427023 146.0553593441 179.56646427023 146.0553593441 183.22271427023 C 146.0553593441 186.87896427023 144.7116093441 189.77740177023 142.0241093441 191.91802677023 C 139.3366093441 194.05865177023 136.2116093441 195.12896427023 132.6491093441 195.12896427023 C 130.7428593441 195.12896427023 129.0162968441 194.87115177023 127.4694218441 194.35552677023 C 125.9225468441 193.83990177023 125.0319218441 193.58208927023 124.7975468441 193.58208927023 C 124.5631718441 193.58208927023 124.1881718441 193.83990177023 123.6725468441 194.35552677023 C 123.1569218441 194.87115177023 122.7428593441 195.12896427023 122.4303593441 195.12896427023 L 121.6334843441 195.12896427023 C 121.4459843441 195.12896427023 121.2116093441 193.44146427023 120.9303593441 190.06646427023 C 120.6491093441 186.69146427023 120.5084843441 184.69146427023 120.5084843441 184.06646427023 C 120.5084843441 183.44146427023 120.5631718441 183.09771427023 120.6725468441 183.03521427023 C 120.7819218441 182.97271427023 120.9616093441 182.94146427023 121.2116093441 182.94146427023 C 121.4616093441 182.94146427023 121.6725468441 183.01958927023 121.8444218441 183.17583927023 C 122.0162968441 183.33208927023 122.1647343441 183.52740177023 122.2897343441 183.76177677023 C 122.4147343441 183.99615177023 122.5162968441 184.23833927023 122.5944218441 184.48833927023 C 122.6725468441 184.73833927023 122.8678593441 185.20708927023 123.1803593441 185.89458927023 C 125.3053593441 190.42583927023 128.5866093441 192.69146427023 133.0241093441 192.69146427023 C 134.9928593441 192.69146427023 136.5709843441 191.96490177023 137.7584843441 190.51177677023 C 138.9459843441 189.05865177023 139.5397343441 187.44146427023 139.5397343441 185.66021427023 C 139.5397343441 183.87896427023 139.0709843441 182.37896427023 138.1334843441 181.16021427023 C 137.1959843441 179.94146427023 136.0319218441 178.83208927023 134.6412968441 177.83208927023 C 133.2506718441 176.83208927023 131.7428593441 175.86333927023 130.1178593441 174.92583927023 C 123.8053593441 171.23833927023 120.6491093441 167.16021427023 120.6491093441 162.69146427023 C 120.6491093441 159.34771427023 122.0866093441 156.46490177023 124.9616093441 154.04302677023 C 127.8366093441 151.62115177023 130.7897343441 150.41021427023 133.8209843441 150.41021427023 C 136.8522343441 150.41021427023 139.0944218441 150.73833927023 140.5475468441 151.39458927023 C 142.0006718441 152.05083927023 142.8522343441 152.60552677023 143.1022343441 153.05865177023 C 143.3522343441 153.51177677023 143.4772343441 154.98833927023 143.4772343441 157.48833927023 L 143.4772343441 161.80083927023 Z M 164.2428593441 157.81646427023 C 164.0553593441 157.81646427023 163.9616093441 157.95708927023 163.9616093441 158.23833927023 L 163.9616093441 184.11333927023 C 163.9616093441 185.98833927023 164.3756718441 187.45708927023 165.2037968441 188.51958927023 C 166.0319218441 189.58208927023 167.0866093441 190.11333927023 168.3678593441 190.11333927023 C 169.6491093441 190.11333927023 170.7662968441 189.90240177023 171.7194218441 189.48052677023 C 172.6725468441 189.05865177023 173.5006718441 188.59771427023 174.2037968441 188.09771427023 C 174.9069218441 187.59771427023 175.5397343441 187.13677677023 176.1022343441 186.71490177023 C 176.6647343441 186.29302677023 177.1647343441 186.08208927023 177.6022343441 186.08208927023 C 178.0397343441 186.08208927023 178.2584843441 186.19146427023 178.2584843441 186.41021427023 C 178.2584843441 187.16021427023 178.1803593441 187.64458927023 178.0241093441 187.86333927023 C 174.2741093441 192.70708927023 170.6569218441 195.12896427023 167.1725468441 195.12896427023 C 163.6881718441 195.12896427023 161.0631718441 194.02740177023 159.2975468441 191.82427677023 C 157.5319218441 189.62115177023 156.6491093441 186.98833927023 156.6491093441 183.92583927023 L 156.6491093441 157.81646427023 L 153.1334843441 157.81646427023 C 152.2584843441 157.81646427023 151.7975468441 157.53521427023 151.7506718441 156.97271427023 C 151.7037968441 156.41021427023 151.7897343441 156.05083927023 152.0084843441 155.89458927023 C 153.6647343441 154.83208927023 155.9459843441 152.92583927023 158.8522343441 150.17583927023 C 159.1647343441 149.83208927023 159.5866093441 149.31646427023 160.1178593441 148.62896427023 C 160.6491093441 147.94146427023 161.4225468441 147.00396427023 162.4381718441 145.81646427023 C 163.4537968441 144.62896427023 164.2272343441 144.03521427023 164.7584843441 144.03521427023 C 165.2897343441 144.03521427023 165.5553593441 144.25396427023 165.5553593441 144.69146427023 C 165.5553593441 144.75396427023 165.0241093441 146.80083927023 163.9616093441 150.83208927023 C 163.9616093441 151.39458927023 164.2116093441 151.69146427023 164.7116093441 151.72271427023 L 176.6647343441 151.72271427023 C 178.0397343441 151.72271427023 178.7272343441 153.66021427023 178.7272343441 157.53521427023 C 178.7272343441 157.72271427023 178.6022343441 157.81646427023 178.3522343441 157.81646427023 L 164.2428593441 157.81646427023 Z M 183.1803593441 193.86333927023 C 182.8678593441 193.80083927023 182.7116093441 193.58208927023 182.7116093441 193.20708927023 C 182.7116093441 192.64458927023 183.4459843441 192.26958927023 184.9147343441 192.08208927023 C 188.2897343441 191.58208927023 189.9772343441 189.80083927023 189.9772343441 186.73833927023 L 189.9772343441 161.94146427023 C 189.9772343441 160.62896427023 189.2584843441 159.72271427023 187.8209843441 159.22271427023 C 187.1959843441 159.00396427023 186.5241093441 158.82427677023 185.8053593441 158.68365177023 C 185.0866093441 158.54302677023 184.5162968441 158.41021427023 184.0944218441 158.28521427023 C 183.6725468441 158.16021427023 183.4069218441 158.04302677023 183.2975468441 157.93365177023 C 183.1881718441 157.82427677023 183.1334843441 157.58990177023 183.1334843441 157.23052677023 C 183.1334843441 156.87115177023 183.3678593441 156.56646427023 183.8366093441 156.31646427023 L 195.7897343441 150.69146427023 C 196.1647343441 150.50396427023 196.3991093441 150.41021427023 196.4928593441 150.41021427023 C 197.0241093441 150.41021427023 197.2897343441 150.78521427023 197.2897343441 151.53521427023 L 197.2897343441 186.73833927023 C 197.2897343441 189.80083927023 198.9772343441 191.58208927023 202.3522343441 192.08208927023 C 203.8209843441 192.26958927023 204.5553593441 192.59771427023 204.5553593441 193.06646427023 C 204.5553593441 193.53521427023 204.3991093441 193.80083927023 204.0866093441 193.86333927023 L 183.1803593441 193.86333927023 Z M 189.5319218441 136.01958927023 C 188.5475468441 135.20708927023 188.0553593441 134.07427677023 188.0553593441 132.62115177023 C 188.0553593441 131.16802677023 188.5241093441 130.01958927023 189.4616093441 129.17583927023 C 190.3991093441 128.33208927023 191.5162968441 127.91021427023 192.8131718441 127.91021427023 C 194.1100468441 127.91021427023 195.2037968441 128.41021427023 196.0944218441 129.41021427023 C 196.9850468441 130.41021427023 197.4303593441 131.48833927023 197.4303593441 132.64458927023 C 197.4303593441 133.80083927023 197.0084843441 134.85552677023 196.1647343441 135.80865177023 C 195.3209843441 136.76177677023 194.2506718441 137.23833927023 192.9537968441 137.23833927023 C 191.6569218441 137.23833927023 190.5162968441 136.83208927023 189.5319218441 136.01958927023 Z M 244.5866093441 179.09771427023 L 244.4928593441 169.20708927023 C 244.4928593441 165.17583927023 244.1491093441 162.34771427023 243.4616093441 160.72271427023 C 242.7741093441 159.09771427023 241.8991093441 157.87115177023 240.8366093441 157.04302677023 C 239.7741093441 156.21490177023 238.3444218441 155.80083927023 236.5475468441 155.80083927023 C 234.7506718441 155.80083927023 230.9459843441 157.20708927023 225.1334843441 160.01958927023 C 224.3522343441 160.48833927023 223.9459843441 160.92583927023 223.9147343441 161.33208927023 L 223.9147343441 186.55083927023 C 223.9147343441 189.70708927023 225.6022343441 191.51958927023 228.9772343441 191.98833927023 C 230.4459843441 192.20708927023 231.1803593441 192.55865177023 231.1803593441 193.04302677023 C 231.1803593441 193.52740177023 231.0241093441 193.80083927023 230.7116093441 193.86333927023 L 209.8053593441 193.86333927023 C 209.4928593441 193.80083927023 209.3366093441 193.58208927023 209.3366093441 193.20708927023 C 209.3366093441 192.61333927023 210.0709843441 192.20708927023 211.5397343441 191.98833927023 C 214.9147343441 191.51958927023 216.6022343441 189.70708927023 216.6022343441 186.55083927023 L 216.6022343441 159.64458927023 C 216.6022343441 158.33208927023 215.8834843441 157.42583927023 214.4459843441 156.92583927023 C 213.8209843441 156.70708927023 213.1491093441 156.52740177023 212.4303593441 156.38677677023 C 211.7116093441 156.24615177023 211.1412968441 156.11333927023 210.7194218441 155.98833927023 C 210.2975468441 155.86333927023 210.0319218441 155.74615177023 209.9225468441 155.63677677023 C 209.8131718441 155.52740177023 209.7584843441 155.29302677023 209.7584843441 154.93365177023 C 209.7584843441 154.57427677023 209.9928593441 154.26958927023 210.4616093441 154.01958927023 L 222.4147343441 148.39458927023 C 222.7897343441 148.20708927023 223.0241093441 148.11333927023 223.1178593441 148.11333927023 C 223.6491093441 148.11333927023 223.9147343441 148.48833927023 223.9147343441 149.23833927023 L 223.9147343441 156.55083927023 C 224.0084843441 156.86333927023 224.1334843441 157.01958927023 224.2897343441 157.01958927023 C 224.4772343441 157.01958927023 225.1491093441 156.73833927023 226.3053593441 156.17583927023 C 228.9928593441 154.83208927023 231.6959843441 153.53521427023 234.4147343441 152.28521427023 C 237.1334843441 151.03521427023 239.3834843441 150.41021427023 241.1647343441 150.41021427023 C 248.3834843441 150.41021427023 251.9928593441 156.98833927023 251.9928593441 170.14458927023 L 251.5709843441 183.83208927023 L 251.5709843441 186.55083927023 C 251.5709843441 188.98833927023 252.7897343441 190.58208927023 255.2272343441 191.33208927023 C 256.2584843441 191.67583927023 257.2506718441 191.91802677023 258.2037968441 192.05865177023 C 259.1569218441 192.19927677023 259.7819218441 192.33208927023 260.0787968441 192.45708927023 C 260.3756718441 192.58208927023 260.5241093441 192.83208927023 260.5241093441 193.20708927023 C 260.5241093441 193.58208927023 260.3678593441 193.80083927023 260.0553593441 193.86333927023 L 237.4616093441 193.86333927023 C 237.1491093441 193.80083927023 236.9928593441 193.58208927023 236.9928593441 193.20708927023 C 236.9928593441 192.61333927023 237.7272343441 192.20708927023 239.1959843441 191.98833927023 C 242.5397343441 191.51958927023 244.2116093441 189.58208927023 244.2116093441 186.17583927023 C 244.4616093441 184.61333927023 244.5866093441 182.25396427023 244.5866093441 179.09771427023 Z M 294.8600468441 188.07427677023 C 295.6256718441 188.55865177023 296.5084843441 188.80083927023 297.5084843441 188.80083927023 C 298.5084843441 188.80083927023 299.3444218441 188.54302677023 300.0162968441 188.02740177023 C 300.6881718441 187.51177677023 301.1491093441 187.25396427023 301.3991093441 187.25396427023 C 301.6491093441 187.25396427023 301.7741093441 187.58990177023 301.7741093441 188.26177677023 C 301.7741093441 188.93365177023 301.4616093441 189.50396427023 300.8366093441 189.97271427023 C 296.1491093441 193.41021427023 292.9772343441 195.12896427023 291.3209843441 195.12896427023 C 289.3209843441 195.12896427023 287.6959843441 193.05083927023 286.4459843441 188.89458927023 C 286.3522343441 188.58208927023 286.2741093441 188.44146427023 286.2116093441 188.47271427023 C 282.3366093441 191.37896427023 279.8991093441 193.12896427023 278.8991093441 193.72271427023 C 276.3366093441 195.19146427023 273.7662968441 195.42583927023 271.1881718441 194.42583927023 C 268.6100468441 193.42583927023 266.7428593441 191.76958927023 265.5866093441 189.45708927023 C 265.0241093441 188.26958927023 264.7428593441 187.00396427023 264.7428593441 185.66021427023 C 264.7428593441 183.00396427023 265.7272343441 180.89458927023 267.6959843441 179.33208927023 C 269.6647343441 177.76958927023 273.4147343441 176.26958927023 278.9459843441 174.83208927023 C 280.8209843441 174.33208927023 282.4928593441 173.69146427023 283.9616093441 172.91021427023 C 285.4303593441 172.12896427023 286.2037968441 171.62896427023 286.2819218441 171.41021427023 C 286.3600468441 171.19146427023 286.3991093441 170.98833927023 286.3991093441 170.80083927023 L 286.3991093441 161.80083927023 C 286.3991093441 158.26958927023 285.0241093441 155.78521427023 282.2741093441 154.34771427023 C 281.3678593441 153.87896427023 280.2819218441 153.64458927023 279.0162968441 153.64458927023 C 277.7506718441 153.64458927023 276.4694218441 154.14458927023 275.1725468441 155.14458927023 C 273.8756718441 156.14458927023 273.2272343441 157.56646427023 273.2272343441 159.41021427023 L 273.4616093441 161.23833927023 C 273.2741093441 161.61333927023 272.1491093441 162.23833927023 270.0866093441 163.11333927023 C 268.0241093441 163.98833927023 266.8366093441 164.45708927023 266.5241093441 164.51958927023 C 266.0241093441 164.51958927023 265.7741093441 163.91802677023 265.7741093441 162.71490177023 C 265.7741093441 161.51177677023 266.1334843441 160.17583927023 266.8522343441 158.70708927023 C 267.5709843441 157.23833927023 268.5866093441 155.89458927023 269.8991093441 154.67583927023 C 272.9616093441 151.83208927023 276.4616093441 150.41021427023 280.3991093441 150.41021427023 C 284.3366093441 150.41021427023 287.5397343441 151.49615177023 290.0084843441 153.66802677023 C 292.4772343441 155.83990177023 293.7116093441 158.42583927023 293.7116093441 161.42583927023 L 293.7116093441 186.12896427023 C 293.7116093441 186.94146427023 294.0944218441 187.58990177023 294.8600468441 188.07427677023 Z M 273.8366093441 188.68365177023 C 274.9928593441 189.79302677023 276.3131718441 190.34771427023 277.7975468441 190.34771427023 C 279.2819218441 190.34771427023 281.0866093441 189.71490177023 283.2116093441 188.44927677023 C 285.3366093441 187.18365177023 286.3991093441 185.87896427023 286.3991093441 184.53521427023 L 286.3991093441 175.01958927023 C 286.3991093441 174.67583927023 286.3209843441 174.50396427023 286.1647343441 174.50396427023 C 286.0084843441 174.50396427023 285.8991093441 174.51958927023 285.8366093441 174.55083927023 L 274.9616093441 179.61333927023 C 273.8366093441 180.42583927023 273.0787968441 181.11333927023 272.6881718441 181.67583927023 C 272.2975468441 182.23833927023 272.1022343441 183.26958927023 272.1022343441 184.76958927023 C 272.1022343441 186.26958927023 272.6803593441 187.57427677023 273.8366093441 188.68365177023 Z"/><path id="text" transform="matrix(0.6138034595858042 0 0 0.6138034595858042 232.86745593241406 205.8815676108108)" d="M 48.11319781367 645.25113090078 C 49.77719781367 645.25113090078 51.20119781367 644.67513090078 52.38519781367 643.52313090078 C 53.56919781368 642.37113090078 54.19319781367 640.96313090078 54.25719781367 639.29913090078 L 54.25719781367 614.43513090078 L 14.99319781367 614.43513090078 L 14.99319781367 639.20313090078 C 14.99319781367 640.86713090078 15.60119781367 642.29113090078 16.81719781367 643.47513090078 C 18.03319781367 644.65913090078 19.47319781367 645.25113090078 21.13719781367 645.25113090078 L 22.38519781367 645.25113090078 L 22.38519781367 646.21113090078 L 1.36119781367 646.21113090078 L 1.36119781367 645.25113090078 L 2.60919781367 645.25113090078 C 4.27319781367 645.25113090078 5.69719781367 644.65913090078 6.88119781367 643.47513090078 C 8.06519781367 642.29113090078 8.68919781367 640.86713090078 8.75319781367 639.20313090078 L 8.75319781367 585.92313090078 C 8.68919781367 584.25913090078 8.06519781367 582.85113090078 6.88119781367 581.69913090078 C 5.69719781367 580.54713090078 4.27319781367 579.97113090078 2.60919781367 579.97113090078 L 1.36119781367 579.97113090078 L 1.36119781367 579.01113090078 L 22.38519781367 579.01113090078 L 22.38519781367 579.97113090078 L 21.13719781367 579.97113090078 C 19.47319781367 579.97113090078 18.04919781367 580.54713090078 16.86519781367 581.69913090078 C 15.68119781367 582.85113090078 15.05719781367 584.25913090078 14.99319781367 585.92313090078 L 14.99319781367 611.55513090078 L 54.25719781367 611.55513090078 L 54.25719781367 585.92313090078 C 54.19319781367 583.61913090078 53.16919781367 581.89113090078 51.18519781368 580.73913090078 C 50.22519781368 580.22713090078 49.20119781367 579.97113090078 48.11319781367 579.97113090078 L 46.86519781368 579.97113090078 L 46.86519781368 579.01113090078 L 67.88919781368 579.01113090078 L 67.88919781368 579.97113090078 L 66.64119781368 579.97113090078 C 64.97719781368 579.97113090078 63.55319781367 580.56313090078 62.36919781367 581.74713090078 C 61.18519781368 582.93113090078 60.56119781367 584.35513090078 60.49719781367 586.01913090078 L 60.49719781367 639.20313090078 C 60.56119781367 640.86713090078 61.18519781368 642.29113090078 62.36919781367 643.47513090078 C 63.55319781367 644.65913090078 64.97719781368 645.25113090078 66.64119781368 645.25113090078 L 67.88919781368 645.25113090078 L 67.88919781368 646.21113090078 L 46.86519781368 646.21113090078 L 46.86519781368 645.25113090078 L 48.11319781367 645.25113090078 Z M 128.12919781367 587.26713090078 C 134.04919781368 587.26713090078 139.47319781368 588.53113090078 144.40119781368 591.05913090078 C 149.32919781368 593.58713090078 153.24919781367 597.15513090078 156.16119781367 601.76313090078 C 159.07319781368 606.37113090078 160.52919781367 611.58713090078 160.52919781367 617.41113090078 C 160.52919781367 623.23513090078 159.07319781368 628.45113090078 156.16119781367 633.05913090078 C 153.24919781367 637.66713090078 149.32919781368 641.23513090078 144.40119781368 643.76313090078 C 139.47319781368 646.29113090078 134.41719781367 647.55513090078 129.23319781368 647.55513090078 C 124.04919781368 647.55513090078 119.47319781368 646.81913090078 115.50519781368 645.34713090078 C 111.53719781368 643.87513090078 108.09719781368 641.82713090078 105.18519781368 639.20313090078 C 102.27319781368 636.57913090078 99.96919781368 633.37913090078 98.27319781368 629.60313090078 C 96.57719781368 625.82713090078 95.72919781368 621.39513090078 95.72919781368 616.30713090078 C 95.72919781368 611.21913090078 97.18519781368 606.37113090078 100.09719781368 601.76313090078 C 103.00919781368 597.15513090078 106.92919781368 593.58713090078 111.85719781368 591.05913090078 C 116.78519781368 588.53113090078 122.20919781368 587.26713090078 128.12919781367 587.26713090078 Z M 128.08119781367 644.67513090078 C 135.24919781367 644.67513090078 141.26519781367 642.13113090078 146.12919781367 637.04313090078 C 150.99319781367 631.95513090078 153.42519781368 625.41113090078 153.42519781368 617.41113090078 C 153.42519781368 609.41113090078 150.99319781367 602.86713090078 146.12919781367 597.77913090078 C 141.26519781367 592.69113090078 135.24919781367 590.14713090078 128.08119781367 590.14713090078 C 120.91319781368 590.14713090078 114.91319781368 592.69113090078 110.08119781368 597.77913090078 C 105.24919781368 602.86713090078 102.83319781368 609.41113090078 102.83319781368 617.41113090078 C 102.83319781368 625.41113090078 105.24919781368 631.95513090078 110.08119781368 637.04313090078 C 114.91319781368 642.13113090078 120.91319781368 644.67513090078 128.08119781367 644.67513090078 Z M 212.46519781368 591.39513090078 L 212.46519781368 640.16313090078 C 212.52919781368 642.14713090078 213.48919781368 643.61913090078 215.34519781368 644.57913090078 C 216.17719781367 645.02713090078 217.10519781367 645.25113090078 218.12919781367 645.25113090078 L 219.18519781368 645.25113090078 L 219.18519781368 646.21113090078 L 199.40919781367 646.21113090078 L 199.40919781367 645.25113090078 L 200.56119781368 645.25113090078 C 202.09719781368 645.25113090078 203.40919781367 644.73913090078 204.49719781367 643.71513090078 C 205.58519781368 642.69113090078 206.16119781368 641.47513090078 206.22519781368 640.06713090078 L 206.22519781368 591.39513090078 L 188.84919781367 591.39513090078 C 187.37719781368 591.39513090078 186.20919781368 591.87513090078 185.34519781368 592.83513090078 C 184.48119781368 593.79513090078 184.04919781368 594.94713090078 184.04919781368 596.29113090078 L 184.04919781368 597.82713090078 L 182.99319781368 597.82713090078 L 182.99319781368 586.97913090078 C 184.27319781368 587.49113090078 186.08119781367 587.87513090078 188.41719781368 588.13113090078 C 190.75319781367 588.38713090078 192.49719781367 588.51513090078 193.64919781368 588.51513090078 L 224.94519781367 588.51513090078 C 229.55319781368 588.51513090078 233.13719781368 588.00313090078 235.69719781368 586.97913090078 L 235.69719781368 597.82713090078 L 234.64119781367 597.82713090078 L 234.64119781367 596.29113090078 C 234.64119781367 594.94713090078 234.19319781368 593.79513090078 233.29719781368 592.83513090078 C 232.40119781368 591.87513090078 231.24919781368 591.39513090078 229.84119781368 591.39513090078 L 212.46519781368 591.39513090078 Z M 262.86519781368 645.25113090078 C 264.40119781368 645.25113090078 265.69719781368 644.75513090078 266.75319781368 643.76313090078 C 267.80919781368 642.77113090078 268.36919781368 641.57113090078 268.43319781368 640.16313090078 L 268.43319781368 594.56313090078 C 268.43319781368 593.15513090078 267.88919781368 591.97113090078 266.80119781368 591.01113090078 C 265.71319781368 590.05113090078 264.40119781368 589.57113090078 262.86519781368 589.57113090078 L 261.52119781368 589.57113090078 L 261.52119781368 588.61113090078 L 289.55319781368 588.61113090078 C 292.17719781368 588.61113090078 294.48119781368 588.41913090078 296.46519781368 588.03513090078 C 298.44919781368 587.65113090078 299.72919781368 587.33113090078 300.30519781368 587.07513090078 L 300.30519781368 598.01913090078 L 299.24919781368 597.92313090078 L 299.24919781368 596.48313090078 C 299.24919781368 595.13913090078 298.80119781368 593.98713090078 297.90519781368 593.02713090078 C 297.00919781368 592.06713090078 295.85719781368 591.58713090078 294.44919781368 591.58713090078 L 274.48119781368 591.58713090078 L 274.48119781368 615.97113090078 L 290.89719781368 615.97113090078 C 292.17719781368 615.97113090078 293.15319781368 615.58713090078 293.82519781368 614.81913090078 C 294.49719781368 614.05113090078 294.83319781368 613.09113090078 294.83319781368 611.93913090078 L 294.83319781368 610.69113090078 L 295.88919781368 610.69113090078 L 295.88919781368 624.13113090078 L 294.83319781368 624.13113090078 L 294.83319781368 622.88313090078 C 294.83319781368 621.09113090078 294.16119781368 619.87513090078 292.81719781368 619.23513090078 C 292.30519781368 619.04313090078 291.76119781368 618.91513090078 291.18519781368 618.85113090078 L 274.48119781368 618.85113090078 L 274.48119781368 643.23513090078 L 289.55319781368 643.23513090078 C 292.49719781368 643.23513090078 294.97719781368 642.72313090078 296.99319781368 641.69913090078 C 299.00919781368 640.67513090078 300.54519781368 639.45913090078 301.60119781368 638.05113090078 C 302.65719781368 636.64313090078 303.72919781368 634.78713090078 304.81719781368 632.48313090078 L 305.77719781368 632.48313090078 L 300.49719781368 646.21113090078 L 261.52119781368 646.21113090078 L 261.52119781368 645.25113090078 L 262.86519781368 645.25113090078 Z M 333.52119781368 645.25113090078 C 335.05719781368 645.25113090078 336.35319781368 644.75513090078 337.40919781368 643.76313090078 C 338.46519781368 642.77113090078 339.02519781368 641.57113090078 339.08919781368 640.16313090078 L 339.08919781368 594.75513090078 C 339.02519781368 593.34713090078 338.43319781368 592.13113090078 337.31319781368 591.10713090078 C 336.19319781368 590.08313090078 334.86519781368 589.57113090078 333.32919781368 589.57113090078 L 332.17719781368 589.57113090078 L 332.17719781368 588.61113090078 L 352.04919781368 588.61113090078 L 352.04919781368 589.57113090078 L 350.89719781368 589.57113090078 C 349.36119781368 589.57113090078 348.03319781368 590.08313090078 346.91319781368 591.10713090078 C 345.79319781368 592.13113090078 345.23319781368 593.34713090078 345.23319781368 594.75513090078 L 345.23319781368 643.23513090078 L 360.20919781368 643.23513090078 C 363.15319781368 643.23513090078 365.64919781368 642.72313090078 367.69719781368 641.69913090078 C 369.74519781368 640.67513090078 371.29719781368 639.45913090078 372.35319781368 638.05113090078 C 373.40919781368 636.64313090078 374.44919781368 634.78713090078 375.47319781368 632.48313090078 L 376.43319781368 632.48313090078 L 371.15319781368 646.21113090078 L 332.17719781368 646.21113090078 L 332.17719781368 645.25113090078 L 333.52119781368 645.25113090078 Z M 403.12119781368 643.04313090078 C 402.92919781368 642.27513090078 402.83319781368 640.70713090078 402.83319781368 638.33913090078 C 402.83319781368 635.97113090078 403.24919781368 633.57113090078 404.08119781368 631.13913090078 L 405.23319781368 631.13913090078 C 405.16919781368 631.71513090078 405.13719781368 632.29113090078 405.13719781368 632.86713090078 C 405.13719781368 636.32313090078 406.27319781368 639.15513090078 408.54519781368 641.36313090078 C 410.81719781368 643.57113090078 413.96919781368 644.67513090078 418.00119781368 644.67513090078 C 422.22519781368 644.67513090078 425.52119781368 643.69913090078 427.88919781368 641.74713090078 C 430.25719781368 639.79513090078 431.44119781368 637.26713090078 431.44119781368 634.16313090078 C 431.44119781368 631.05913090078 430.28919781368 628.48313090078 427.98519781368 626.43513090078 L 408.78519781368 611.65113090078 C 405.71319781368 609.02713090078 404.17719781368 605.50713090078 404.17719781368 601.09113090078 C 404.17719781368 598.59513090078 404.86519781368 596.29113090078 406.24119781368 594.17913090078 C 407.61719781368 592.06713090078 409.53719781368 590.38713090078 412.00119781368 589.13913090078 C 414.46519781368 587.89113090078 417.36119781368 587.26713090078 420.68919781368 587.26713090078 C 424.01719781368 587.26713090078 426.96119781368 587.55513090078 429.52119781368 588.13113090078 L 432.68919781368 588.13113090078 L 432.88119781368 598.59513090078 L 431.82519781368 598.59513090078 C 431.82519781368 595.90713090078 430.89719781368 593.82713090078 429.04119781368 592.35513090078 C 427.18519781368 590.88313090078 424.52919781368 590.14713090078 421.07319781368 590.14713090078 C 417.61719781368 590.14713090078 414.76919781368 591.02713090078 412.52919781368 592.78713090078 C 410.28919781368 594.54713090078 409.16919781368 596.81913090078 409.16919781368 599.60313090078 C 409.16919781368 602.38713090078 410.41719781368 604.80313090078 412.91319781368 606.85113090078 L 432.30519781368 621.82713090078 C 435.24919781368 624.25913090078 436.72119781368 627.65113090078 436.72119781368 632.00313090078 C 436.72119781368 636.35513090078 435.07319781368 640.03513090078 431.77719781368 643.04313090078 C 428.48119781368 646.05113090078 424.46519781368 647.55513090078 419.72919781368 647.55513090078 C 416.59319781368 647.55513090078 413.45719781368 647.17113090078 410.32119781368 646.40313090078 C 407.18519781368 645.63513090078 404.78519781368 644.51513090078 403.12119781368 643.04313090078 Z M 564.49719781367 610.21113090078 C 563.15319781368 610.21113090078 562.20919781367 610.54713090078 561.66519781367 611.21913090078 C 561.12119781367 611.89113090078 560.84919781368 612.53113090078 560.84919781368 613.13913090078 C 560.84919781368 613.74713090078 560.99319781368 614.75513090078 561.28119781367 616.16313090078 C 561.56919781367 617.57113090078 561.71319781367 619.42713090078 561.71319781367 621.73113090078 C 561.71319781367 626.78713090078 560.52919781367 631.39513090078 558.16119781367 635.55513090078 C 560.46519781368 637.53913090078 562.28919781367 639.05913090078 563.63319781368 640.11513090078 C 564.97719781367 641.17113090078 566.73719781367 642.25913090078 568.91319781368 643.37913090078 C 571.08919781368 644.49913090078 573.10519781368 645.12313090078 574.96119781368 645.25113090078 L 574.96119781368 646.21113090078 C 574.89719781368 646.21113090078 574.36919781368 646.21113090078 573.37719781367 646.21113090078 C 572.38519781367 646.21113090078 571.68119781368 646.21113090078 571.26519781367 646.21113090078 C 570.84919781368 646.21113090078 570.08119781368 646.17913090078 568.96119781368 646.11513090078 C 567.84119781368 646.05113090078 566.92919781367 645.93913090078 566.22519781368 645.77913090078 C 565.52119781367 645.61913090078 564.59319781367 645.41113090078 563.44119781368 645.15513090078 C 562.28919781367 644.89913090078 561.26519781367 644.54713090078 560.36919781368 644.09913090078 C 558.06519781368 643.07513090078 556.04919781367 641.89113090078 554.32119781368 640.54713090078 C 549.77719781368 644.96313090078 543.85719781367 647.17113090078 536.56119781368 647.17113090078 C 527.21719781367 647.17113090078 519.98519781368 645.21913090078 514.86519781368 641.31513090078 C 509.74519781368 637.41113090078 507.18519781368 631.87513090078 507.18519781368 624.70713090078 C 507.18519781368 616.77113090078 511.05719781368 610.85113090078 518.80119781368 606.94713090078 C 516.36919781368 603.04313090078 515.15319781368 598.75513090078 515.15319781368 594.08313090078 C 515.15319781368 589.34713090078 516.88119781367 585.44313090078 520.33719781367 582.37113090078 C 523.92119781368 579.23513090078 528.62519781367 577.66713090078 534.44919781367 577.66713090078 C 537.71319781367 577.66713090078 540.81719781368 578.29113090078 543.76119781367 579.53913090078 C 546.70519781368 580.78713090078 549.04119781368 582.43513090078 550.76919781368 584.48313090078 L 549.04119781368 595.33113090078 L 548.08119781368 595.33113090078 C 548.08119781368 590.72313090078 546.83319781367 587.10713090078 544.33719781367 584.48313090078 C 541.84119781368 581.85913090078 538.65719781368 580.54713090078 534.78519781367 580.54713090078 C 530.91319781368 580.54713090078 527.77719781368 581.82713090078 525.37719781367 584.38713090078 C 522.97719781367 586.94713090078 521.77719781368 590.14713090078 521.77719781368 593.98713090078 C 521.77719781368 597.82713090078 522.96119781368 601.44313090078 525.32919781367 604.83513090078 C 527.69719781368 608.22713090078 532.33719781367 612.99513090078 539.24919781368 619.13913090078 C 546.16119781367 625.28313090078 551.21719781367 629.69913090078 554.41719781368 632.38713090078 C 555.76119781367 629.44313090078 556.43319781367 626.40313090078 556.43319781367 623.26713090078 C 556.43319781367 620.13113090078 555.74519781368 617.17113090078 554.36919781368 614.38713090078 C 552.99319781368 611.60313090078 550.96119781368 610.21113090078 548.27319781368 610.21113090078 L 546.83319781367 610.21113090078 L 546.83319781367 609.25113090078 L 565.93719781368 609.25113090078 L 565.93719781368 610.21113090078 L 564.49719781367 610.21113090078 Z M 551.05719781368 637.76313090078 C 534.67319781367 624.25913090078 524.43319781367 614.75513090078 520.33719781367 609.25113090078 C 516.24119781367 613.09113090078 514.19319781367 618.09913090078 514.19319781367 624.27513090078 C 514.19319781367 630.45113090078 516.16119781367 635.33113090078 520.09719781367 638.91513090078 C 524.03319781368 642.49913090078 529.52119781367 644.29113090078 536.56119781368 644.29113090078 C 542.44919781367 644.29113090078 547.28119781367 642.11513090078 551.05719781368 637.76313090078 Z M 634.57719781367 642.27513090078 C 634.38519781367 641.37913090078 634.28919781367 639.65113090078 634.28919781367 637.09113090078 C 634.28919781367 634.53113090078 634.76919781368 631.81113090078 635.72919781368 628.93113090078 L 636.59319781367 628.93113090078 C 636.52919781367 629.63513090078 636.49719781367 630.33913090078 636.49719781367 631.04313090078 C 636.49719781367 634.94713090078 637.68119781368 638.19513090078 640.04919781367 640.78713090078 C 642.41719781368 643.37913090078 645.55319781367 644.67513090078 649.45719781367 644.67513090078 C 653.48919781368 644.67513090078 656.80119781368 643.45913090078 659.39319781368 641.02713090078 C 661.98519781368 638.59513090078 663.28119781367 635.53913090078 663.28119781367 631.85913090078 C 663.28119781367 628.17913090078 662.03319781368 625.18713090078 659.53719781368 622.88313090078 L 641.10519781368 605.79513090078 C 637.64919781367 602.59513090078 635.92119781368 598.72313090078 635.92119781368 594.17913090078 C 635.92119781368 589.63513090078 637.44119781368 585.74713090078 640.48119781367 582.51513090078 C 643.52119781367 579.28313090078 647.63319781368 577.66713090078 652.81719781368 577.66713090078 C 655.24919781368 577.66713090078 658.00119781367 577.98713090078 661.07319781367 578.62713090078 L 664.81719781368 578.62713090078 L 664.81719781368 590.43513090078 L 663.95319781367 590.43513090078 C 663.95319781367 587.42713090078 662.91319781368 585.02713090078 660.83319781367 583.23513090078 C 658.75319781368 581.44313090078 656.08119781368 580.54713090078 652.81719781368 580.54713090078 C 649.55319781367 580.54713090078 646.81719781368 581.63513090078 644.60919781368 583.81113090078 C 642.40119781367 585.98713090078 641.29719781368 588.70713090078 641.29719781368 591.97113090078 C 641.29719781368 595.23513090078 642.57719781367 598.05113090078 645.13719781367 600.41913090078 L 664.04919781367 617.89113090078 C 667.24919781368 620.83513090078 668.84919781368 624.86713090078 668.84919781368 629.98713090078 C 668.84919781368 635.10713090078 667.21719781367 639.31513090078 663.95319781367 642.61113090078 C 660.68919781367 645.90713090078 656.33719781367 647.55513090078 650.89719781368 647.55513090078 C 648.08119781368 647.55513090078 645.08919781368 647.12313090078 641.92119781368 646.25913090078 C 638.75319781368 645.39513090078 636.30519781367 644.06713090078 634.57719781367 642.27513090078 Z M 757.36119781368 589.57113090078 L 755.92119781368 589.57113090078 C 754.19319781368 589.57113090078 752.88119781368 590.24313090078 751.98519781368 591.58713090078 C 751.60119781368 592.16313090078 751.37719781367 592.83513090078 751.31319781368 593.60313090078 L 751.31319781368 625.95513090078 C 751.31319781368 632.61113090078 749.18519781367 637.87513090078 744.92919781368 641.74713090078 C 740.67319781368 645.61913090078 734.83319781368 647.55513090078 727.40919781368 647.55513090078 C 719.98519781368 647.55513090078 714.12919781368 645.63513090078 709.84119781368 641.79513090078 C 705.55319781368 637.95513090078 703.40919781367 632.70713090078 703.40919781367 626.05113090078 L 703.40919781367 593.69913090078 C 703.40919781367 592.54713090078 702.96119781368 591.57113090078 702.06519781368 590.77113090078 C 701.16919781367 589.97113090078 700.08119781368 589.57113090078 698.80119781368 589.57113090078 L 697.36119781367 589.57113090078 L 697.36119781367 588.61113090078 L 715.60119781368 588.61113090078 L 715.60119781368 589.57113090078 L 714.16119781367 589.57113090078 C 712.88119781368 589.57113090078 711.79319781368 589.97113090078 710.89719781368 590.77113090078 C 710.00119781368 591.57113090078 709.55319781368 592.54713090078 709.55319781368 593.69913090078 L 709.55319781368 624.89913090078 C 709.55319781368 631.10713090078 711.13719781367 636.00313090078 714.30519781367 639.58713090078 C 717.47319781367 643.17113090078 721.95319781368 644.96313090078 727.74519781368 644.96313090078 C 733.53719781368 644.96313090078 738.17719781368 643.26713090078 741.66519781368 639.87513090078 C 745.15319781368 636.48313090078 746.89719781368 631.84313090078 746.89719781368 625.95513090078 L 746.89719781368 593.69913090078 C 746.83319781368 592.48313090078 746.36919781368 591.49113090078 745.50519781368 590.72313090078 C 744.64119781367 589.95513090078 743.56919781367 589.57113090078 742.28919781368 589.57113090078 L 740.84919781368 589.57113090078 L 740.84919781368 588.61113090078 L 757.36119781368 588.61113090078 L 757.36119781368 589.57113090078 Z M 786.54519781367 645.25113090078 C 788.27319781368 645.25113090078 789.77719781368 644.73913090078 791.05719781368 643.71513090078 C 792.33719781368 642.69113090078 792.97719781368 641.47513090078 792.97719781368 640.06713090078 L 792.97719781368 594.75513090078 C 792.97719781368 593.34713090078 792.33719781368 592.13113090078 791.05719781368 591.10713090078 C 789.77719781368 590.08313090078 788.24119781368 589.57113090078 786.44919781367 589.57113090078 L 785.20119781368 589.57113090078 L 785.20119781368 588.61113090078 L 806.89719781368 588.61113090078 L 806.89719781368 589.57113090078 L 805.64919781368 589.57113090078 C 803.92119781368 589.57113090078 802.43319781368 590.05113090078 801.18519781367 591.01113090078 C 799.93719781368 591.97113090078 799.24919781368 593.15513090078 799.12119781368 594.56313090078 L 799.12119781368 640.16313090078 C 799.18519781367 641.57113090078 799.85719781368 642.77113090078 801.13719781367 643.76313090078 C 802.41719781368 644.75513090078 803.92119781368 645.25113090078 805.64919781368 645.25113090078 L 806.89719781368 645.25113090078 L 806.99319781368 646.21113090078 L 785.20119781368 646.21113090078 L 785.20119781368 645.25113090078 L 786.54519781367 645.25113090078 Z M 862.28919781368 591.39513090078 L 862.28919781368 640.16313090078 C 862.35319781367 642.14713090078 863.31319781368 643.61913090078 865.16919781368 644.57913090078 C 866.00119781368 645.02713090078 866.92919781368 645.25113090078 867.95319781368 645.25113090078 L 869.00919781368 645.25113090078 L 869.00919781368 646.21113090078 L 849.23319781367 646.21113090078 L 849.23319781367 645.25113090078 L 850.38519781368 645.25113090078 C 851.92119781368 645.25113090078 853.23319781367 644.73913090078 854.32119781368 643.71513090078 C 855.40919781368 642.69113090078 855.98519781368 641.47513090078 856.04919781368 640.06713090078 L 856.04919781368 591.39513090078 L 838.67319781368 591.39513090078 C 837.20119781368 591.39513090078 836.03319781368 591.87513090078 835.16919781368 592.83513090078 C 834.30519781367 593.79513090078 833.87319781368 594.94713090078 833.87319781368 596.29113090078 L 833.87319781368 597.82713090078 L 832.81719781368 597.82713090078 L 832.81719781368 586.97913090078 C 834.09719781368 587.49113090078 835.90519781368 587.87513090078 838.24119781368 588.13113090078 C 840.57719781368 588.38713090078 842.32119781368 588.51513090078 843.47319781367 588.51513090078 L 874.76919781368 588.51513090078 C 879.37719781367 588.51513090078 882.96119781368 588.00313090078 885.52119781367 586.97913090078 L 885.52119781367 597.82713090078 L 884.46519781368 597.82713090078 L 884.46519781368 596.29113090078 C 884.46519781368 594.94713090078 884.01719781368 593.79513090078 883.12119781368 592.83513090078 C 882.22519781368 591.87513090078 881.07319781368 591.39513090078 879.66519781368 591.39513090078 L 862.28919781368 591.39513090078 Z M 912.68919781368 645.25113090078 C 914.22519781368 645.25113090078 915.52119781367 644.75513090078 916.57719781368 643.76313090078 C 917.63319781368 642.77113090078 918.19319781368 641.57113090078 918.25719781367 640.16313090078 L 918.25719781367 594.56313090078 C 918.25719781367 593.15513090078 917.71319781368 591.97113090078 916.62519781368 591.01113090078 C 915.53719781368 590.05113090078 914.22519781368 589.57113090078 912.68919781368 589.57113090078 L 911.34519781368 589.57113090078 L 911.34519781368 588.61113090078 L 939.37719781367 588.61113090078 C 942.00119781368 588.61113090078 944.30519781367 588.41913090078 946.28919781368 588.03513090078 C 948.27319781368 587.65113090078 949.55319781368 587.33113090078 950.12919781368 587.07513090078 L 950.12919781368 598.01913090078 L 949.07319781368 597.92313090078 L 949.07319781368 596.48313090078 C 949.07319781368 595.13913090078 948.62519781368 593.98713090078 947.72919781368 593.02713090078 C 946.83319781368 592.06713090078 945.68119781368 591.58713090078 944.27319781368 591.58713090078 L 924.30519781367 591.58713090078 L 924.30519781367 615.97113090078 L 940.72119781368 615.97113090078 C 942.00119781368 615.97113090078 942.97719781368 615.58713090078 943.64919781368 614.81913090078 C 944.32119781368 614.05113090078 944.65719781368 613.09113090078 944.65719781368 611.93913090078 L 944.65719781368 610.69113090078 L 945.71319781368 610.69113090078 L 945.71319781368 624.13113090078 L 944.65719781368 624.13113090078 L 944.65719781368 622.88313090078 C 944.65719781368 621.09113090078 943.98519781368 619.87513090078 942.64119781367 619.23513090078 C 942.12919781368 619.04313090078 941.58519781368 618.91513090078 941.00919781368 618.85113090078 L 924.30519781367 618.85113090078 L 924.30519781367 643.23513090078 L 939.37719781367 643.23513090078 C 942.32119781368 643.23513090078 944.80119781368 642.72313090078 946.81719781368 641.69913090078 C 948.83319781368 640.67513090078 950.36919781368 639.45913090078 951.42519781367 638.05113090078 C 952.48119781368 636.64313090078 953.55319781368 634.78713090078 954.64119781367 632.48313090078 L 955.60119781368 632.48313090078 L 950.32119781368 646.21113090078 L 911.34519781368 646.21113090078 L 911.34519781368 645.25113090078 L 912.68919781368 645.25113090078 Z"/></svg>